<svg width="61" height="93" viewBox="0 0 61 93" fill="none" xmlns="http://www.w3.org/2000/svg">
<circle cx="37" cy="15" r="12" stroke="black" stroke-width="6"/>
<rect x="31.7293" y="26.1538" width="5.95793" height="29.8639" transform="rotate(15 31.7293 26.1538)" fill="black"/>
<rect x="51.6875" y="38.877" width="5.39373" height="18.7844" transform="rotate(108.232 51.6875 38.877)" fill="black"/>
<rect x="31.8683" y="28" width="6.15674" height="22.4195" transform="rotate(61.869 31.8683 28)" fill="black"/>
<rect x="50" y="44" width="5.87441" height="11.8249" transform="rotate(-120 50 44)" fill="black"/>
<rect x="1.26782" y="30.2676" width="5.2252" height="19.4202" transform="rotate(-45 1.26782 30.2676)" fill="black"/>
<rect x="25" y="55.9785" width="5.74846" height="19.9989" transform="rotate(-60 25 55.9785)" fill="black"/>
<rect x="24" y="55" width="6.39386" height="21.2631" transform="rotate(8.97099 24 55)" fill="black"/>
<rect x="39.4319" y="60.8252" width="5.78211" height="30.2727" transform="rotate(4.60767 39.4319 60.8252)" fill="black"/>
<rect x="24.2719" y="72.2749" width="5.45613" height="22.2533" transform="rotate(60 24.2719 72.2749)" fill="black"/>
<rect x="37" y="91" width="6.21058" height="10.9277" transform="rotate(-84.4985 37 91)" fill="black"/>
<rect x="5.00006" y="83.4014" width="6.1731" height="9.9525" transform="rotate(-30 5.00006 83.4014)" fill="black"/>
<rect x="1.16608" y="23.7517" width="4" height="8" transform="rotate(-6.64962 1.16608 23.7517)" fill="#D9D9D9" stroke="#5A5A5A"/>
<rect x="1.92775" y="21.6497" width="2" height="1" transform="rotate(-6.64962 1.92775 21.6497)" fill="#D9D9D9" stroke="#5A5A5A"/>
<path d="M1 2.21826L19.127 4.12426L1.37285 -0.000212064L1 2.21826Z" fill="black"/>
<path d="M8.49054 18.0674L19.1456 15.3144L8.15334 15.8432L8.49054 18.0674Z" fill="black"/>
<path d="M3.51981 10.5918L19.5198 9.5918L3.51981 8.5918L3.51981 10.5918Z" fill="black"/>
</svg>
