<svg width="54" height="90" viewBox="0 0 54 90" fill="none" xmlns="http://www.w3.org/2000/svg">
<circle cx="39" cy="15" r="12" stroke="black" stroke-width="6"/>
<rect x="31.712" y="26.5908" width="5.93096" height="33.6604" transform="rotate(15 31.712 26.5908)" fill="black"/>
<rect x="45" y="44" width="5.94943" height="15.2298" transform="rotate(144.802 45 44)" fill="black"/>
<rect x="30.8683" y="32" width="6.15674" height="22.4195" transform="rotate(61.869 30.8683 32)" fill="black"/>
<rect x="39" y="44" width="6" height="10" fill="black"/>
<rect x="0.267822" y="34.2676" width="5.2252" height="19.4202" transform="rotate(-45 0.267822 34.2676)" fill="black"/>
<rect x="24" y="62.7485" width="5.74846" height="19.9989" transform="rotate(-90 24 62.7485)" fill="black"/>
<rect x="23" y="59.1987" width="6.24013" height="26.7798" transform="rotate(-10.7329 23 59.1987)" fill="black"/>
<rect x="39" y="57" width="6" height="28" fill="black"/>
<rect x="34.6022" y="83.9019" width="5.8567" height="22.8033" transform="rotate(105 34.6022 83.9019)" fill="black"/>
<rect x="49" y="83" width="6" height="10" transform="rotate(90 49 83)" fill="black"/>
<rect x="12.5759" y="78" width="6.1731" height="9.9525" transform="rotate(15 12.5759 78)" fill="black"/>
<rect x="0.5" y="27.5" width="4" height="8" fill="#D9D9D9" stroke="#5A5A5A"/>
<rect x="1.5" y="25.5" width="2" height="1" fill="#D9D9D9" stroke="#5A5A5A"/>
</svg>
