<svg width="60" height="99" viewBox="0 0 60 99" fill="none" xmlns="http://www.w3.org/2000/svg">
<path d="M8.5683 2.21826L26.6953 4.12426L8.94115 -0.000212064L8.5683 2.21826Z" fill="black"/>
<path d="M16.0588 18.0674L26.7139 15.3144L15.7216 15.8432L16.0588 18.0674Z" fill="black"/>
<path d="M11.0881 10.5918L27.0881 9.5918L11.0881 8.5918L11.0881 10.5918Z" fill="black"/>
<circle cx="44.5683" cy="15" r="12" stroke="black" stroke-width="6"/>
<rect x="38.8118" y="26" width="5.93096" height="33.6604" transform="rotate(26.9273 38.8118 26)" fill="black"/>
<rect x="55.6137" y="46.7251" width="5.59753" height="21.2602" transform="rotate(130.21 55.6137 46.7251)" fill="black"/>
<rect x="38.334" y="29.293" width="6.15674" height="22.4195" transform="rotate(77.9837 38.334 29.293)" fill="black"/>
<rect x="55.3947" y="38" width="5.96684" height="11.8974" transform="rotate(41.1338 55.3947 38)" fill="black"/>
<rect x="8.30646" y="22.9775" width="5.2252" height="19.4202" transform="rotate(-28.8853 8.30646 22.9775)" fill="black"/>
<rect x="23.4528" y="56.3472" width="5.17647" height="27.3698" transform="rotate(-39.9636 23.4528 56.3472)" fill="black"/>
<rect x="31.0109" y="64" width="6.24013" height="22.4431" transform="rotate(40.055 31.0109 64)" fill="black"/>
<rect x="39.3139" y="73.542" width="5.70455" height="21.7296" transform="rotate(4.60767 39.3139 73.542)" fill="black"/>
<rect x="23.9705" y="82.0693" width="5.8567" height="20.0398" transform="rotate(130.102 23.9705 82.0693)" fill="black"/>
<rect x="48.0031" y="92.7773" width="6" height="10.2063" transform="rotate(94.6475 48.0031 92.7773)" fill="black"/>
<rect x="7.19162" y="71.1826" width="6.1731" height="9.9525" transform="rotate(46.2691 7.19162 71.1826)" fill="black"/>
<rect x="5.98337" y="22.1471" width="4" height="8" transform="rotate(-60 5.98337 22.1471)" fill="#D9D9D9" stroke="#5A5A5A"/>
<rect x="4.75131" y="20.2809" width="2" height="1" transform="rotate(-60 4.75131 20.2809)" fill="#D9D9D9" stroke="#5A5A5A"/>
</svg>
