<svg width="45" height="102" viewBox="0 0 45 102" fill="none" xmlns="http://www.w3.org/2000/svg">
<circle cx="27" cy="15" r="12" stroke="black" stroke-width="6"/>
<rect x="24" y="26" width="6" height="39" fill="black"/>
<rect x="42" y="44" width="6.00941" height="19.6406" transform="rotate(137.875 42 44)" fill="black"/>
<rect x="42" y="61" width="6" height="17" transform="rotate(-180 42 61)" fill="black"/>
<rect x="29.5616" y="34.4053" width="5.83245" height="23.6636" transform="rotate(120 29.5616 34.4053)" fill="black"/>
<rect y="9.61621" width="5" height="19.03" transform="rotate(-18.8617 0 9.61621)" fill="black"/>
<rect x="24" y="65" width="5.74846" height="19.9989" transform="rotate(-38.7457 24 65)" fill="black"/>
<rect x="35" y="77" width="6" height="24" fill="black"/>
<rect x="45" y="95" width="6" height="10" transform="rotate(90 45 95)" fill="black"/>
<rect width="5.74846" height="19.9989" transform="matrix(-0.779932 -0.625865 -0.625865 0.779932 30 65.5977)" fill="black"/>
<rect width="6" height="24" transform="matrix(-1 0 0 1 19 77.5977)" fill="black"/>
<rect width="6" height="10" transform="matrix(4.37114e-08 1 1 -4.37114e-08 9 95.5977)" fill="black"/>
<rect x="0.5" y="6.5" width="4" height="8" fill="#D9D9D9" stroke="#5A5A5A"/>
<rect x="1.5" y="4.5" width="2" height="1" fill="#D9D9D9" stroke="#5A5A5A"/>
</svg>
