<svg width="58" height="99" viewBox="0 0 58 99" fill="none" xmlns="http://www.w3.org/2000/svg">
<path d="M0 2.21826L18.127 4.12426L0.372855 -0.000212064L0 2.21826Z" fill="black"/>
<path d="M7.49054 18.0674L18.1456 15.3144L7.15334 15.8432L7.49054 18.0674Z" fill="black"/>
<path d="M2.51981 10.5918L18.5198 9.5918L2.51981 8.5918L2.51981 10.5918Z" fill="black"/>
<circle cx="36" cy="15" r="12" stroke="black" stroke-width="6"/>
<rect x="31.389" y="28" width="5.93096" height="33.6604" transform="rotate(0.662197 31.389 28)" fill="black"/>
<rect x="51.7831" y="47.4268" width="5.93516" height="19.4958" transform="rotate(129.599 51.7831 47.4268)" fill="black"/>
<rect x="34.8683" y="34" width="6.15674" height="22.4195" transform="rotate(61.869 34.8683 34)" fill="black"/>
<rect x="48" y="52" width="6" height="12.301" transform="rotate(-132.534 48 52)" fill="black"/>
<rect x="4.26782" y="36.2676" width="5.2252" height="19.4202" transform="rotate(-45 4.26782 36.2676)" fill="black"/>
<rect x="31" y="62.6924" width="5.89096" height="20.9946" transform="rotate(-39.9636 31 62.6924)" fill="black"/>
<rect x="31" y="61" width="5.7116" height="20.2331" transform="rotate(18.4902 31 61)" fill="black"/>
<rect x="42.4129" y="74.4688" width="6.6085" height="17.5879" transform="rotate(4.60767 42.4129 74.4688)" fill="black"/>
<rect x="25.1246" y="78.8096" width="5.82652" height="16.7091" transform="rotate(33.2001 25.1246 78.8096)" fill="black"/>
<rect width="5.82652" height="9.73453" transform="matrix(-0.555719 0.83137 0.83137 0.555719 19.2379 88)" fill="black"/>
<rect x="51.5082" y="92.7876" width="5.96672" height="10.5377" transform="rotate(94.2863 51.5082 92.7876)" fill="black"/>
<rect x="4.05787" y="29.8473" width="4" height="8" transform="rotate(-8.9451 4.05787 29.8473)" fill="#D9D9D9" stroke="#5A5A5A"/>
<rect x="4.73472" y="27.7165" width="2" height="1" transform="rotate(-8.9451 4.73472 27.7165)" fill="#D9D9D9" stroke="#5A5A5A"/>
</svg>
