<svg
  width="100"
  height="100"
  viewBox="0 0 100 100"
  fill="none"
  xmlns="http://www.w3.org/2000/svg"
>
  <g clipPath="url(#clip0)">
    <path
      d="M50 0L56.75 39.1747L96.7654 25L63.5 50L96.7654 75L56.75 60.8253L50 100L43.25 60.8253L3.23463 75L36.5 50L3.23463 25L43.25 39.1747L50 0Z"
      fill="#CE1B1B"
    />
    <path
      d="M50 14L54.75 42.2058L82.909 32L59.5 50L82.909 68L54.75 57.7942L50 86L45.25 57.7942L17.091 68L40.5 50L17.091 32L45.25 42.2058L50 14Z"
      fill="#AC1C1C"
    />
    <path
      d="M39.4887 36.6548L31.1415 21.2571L17.0686 15.7767L39.4887 36.6548Z"
      fill="black"
    />
    <path
      d="M39.2623 23.2713L35.6463 17.0083L38.2047 12.3997L39.2623 23.2713Z"
      fill="black"
    />
    <path
      d="M60.4394 65.5175L67.7217 78.2732L79.6326 83.0121L60.4394 65.5175Z"
      fill="black"
    />
    <path
      d="M59.3836 79.31L62.9996 85.573L60.4412 90.1816L59.3836 79.31Z"
      fill="black"
    />
  </g>

  <defs>
    <clipPath id="clip0">
      <rect width="100" height="100" fill="white" />
    </clipPath>
  </defs>
</svg>