<svg width="100" height="100" viewBox="0 0 100 100" fill="none" xmlns="http://www.w3.org/2000/svg">
<g clip-path="url(#clip0_331_23)">
<path d="M63.1865 0.78733L59.4566 41.114L102.331 37.6491L63.2034 53.5378L89.1446 86.8617L53.7467 62.4237L36.8135 99.2125L40.5433 58.8859L-2.33111 62.3508L36.7966 46.4621L10.8554 13.1382L46.2533 37.5762L63.1865 0.78733Z" fill="#CE1B1B"/>
<path d="M50 13L54.875 41.9893L83.775 31.5L59.75 50L83.775 68.5L54.875 58.0107L50 87L45.125 58.0107L16.225 68.5L40.25 50L16.225 31.5L45.125 41.9893L50 13Z" fill="#AC1C1C"/>
<path d="M68.6397 17.7152L58.2058 45.4179L88.2115 50.5382L58.3403 54.8154L69.5717 82.8232L50.1345 59.3977L31.3603 82.2852L41.7942 54.5824L11.7885 49.4621L41.6597 45.1849L30.4283 17.1771L49.8655 40.6026L68.6397 17.7152Z" fill="#AC1C1C"/>
<path d="M39.2893 36.4018L30.7837 20.7119L16.4438 15.1275L39.2893 36.4018Z" fill="black"/>
<path d="M39.0585 22.7641L35.374 16.3823L37.9809 11.6863L39.0585 22.7641Z" fill="black"/>
<path d="M60.6375 65.8119L68.0579 78.8096L80.1948 83.6384L60.6375 65.8119Z" fill="black"/>
<path d="M59.5617 79.866L63.2462 86.2478L60.6393 90.9438L59.5617 79.866Z" fill="black"/>
</g>
<defs>
<clipPath id="clip0_331_23">
<rect width="100" height="100" fill="white"/>
</clipPath>
</defs>
</svg>
