<svg width="100" height="100" viewBox="0 0 100 100" fill="none" xmlns="http://www.w3.org/2000/svg">
<path fill-rule="evenodd" clip-rule="evenodd" d="M27.4319 48.8767C21.8525 45.5245 18.0592 30.2108 16.8599 22.973C16.8612 22.3867 16.8654 21.7882 16.8725 21.1792C11.7352 28.9713 8.6965 38.6195 8.6965 49.0661C8.6965 74.9452 27.3446 95.9243 50.3483 95.9243C73.3519 95.9243 92 74.9452 92 49.0661C92 37.8156 88.4756 27.4912 82.6012 19.4139C80.4234 29.2634 75.4031 35.3554 71.1741 38.9711C66.1356 17.4315 47.574 7.97697 38.8175 4.07568C42.6704 22.7807 33.6362 40.9135 27.4319 48.8767Z" fill="#CE1B1B"/>
<path d="M83.3795 25.7478C90.8736 43.4936 95.0975 81.9601 52.0407 93.8602C65.2121 88.9018 89.9198 68.3376 83.3795 25.7478Z" fill="black" fill-opacity="0.1"/>
</svg>
